<svg width="20" height="20" viewBox="0 0 20 20" fill="none" xmlns="http://www.w3.org/2000/svg">
<path d="M3.29335 7.29335C3.20036 7.38622 3.12658 7.4965 3.07625 7.6179C3.02591 7.7393 3 7.86943 3 8.00086C3 8.13228 3.02591 8.26241 3.07625 8.38381C3.12658 8.50521 3.20036 8.6155 3.29335 8.70836L8.96673 14.3817C9.05959 14.4747 9.16988 14.5485 9.29128 14.5988C9.41268 14.6492 9.54281 14.6751 9.67423 14.6751C9.80566 14.6751 9.93579 14.6492 10.0572 14.5988C10.1786 14.5485 10.2889 14.4747 10.3817 14.3817L16.0551 8.70836C16.148 8.61545 16.2217 8.50515 16.272 8.38375C16.3223 8.26236 16.3482 8.13225 16.3482 8.00086C16.3482 7.86946 16.3223 7.73935 16.272 7.61796C16.2217 7.49656 16.148 7.38626 16.0551 7.29335C15.9622 7.20044 15.8519 7.12674 15.7305 7.07646C15.6091 7.02618 15.479 7.00029 15.3476 7.00029C15.2162 7.00029 15.0861 7.02618 14.9647 7.07646C14.8433 7.12674 14.733 7.20044 14.6401 7.29335L9.67423 12.2579L4.70836 7.29335C4.6155 7.20036 4.50521 7.12658 4.38381 7.07624C4.26241 7.02591 4.13228 7 4.00086 7C3.86943 7 3.7393 7.02591 3.6179 7.07624C3.4965 7.12658 3.38622 7.20036 3.29335 7.29335Z" fill="#666666"/>
</svg>
