<svg width="18" height="18" viewBox="0 0 18 18" fill="none" xmlns="http://www.w3.org/2000/svg">
<path d="M9.97926 0.613571C9.7986 0.238611 9.41683 0 8.99755 0C8.57828 0 8.19991 0.238611 8.01584 0.613571L5.82403 5.12332L0.929098 5.84597C0.52005 5.90732 0.179178 6.19366 0.053055 6.58566C-0.0730679 6.97766 0.0291938 7.41057 0.322344 7.70031L3.87424 11.2147L3.03569 16.1812C2.96752 16.5903 3.13795 17.0061 3.47542 17.2482C3.81288 17.4902 4.25942 17.5209 4.62756 17.3266L9.00096 14.9916L13.3744 17.3266C13.7425 17.5209 14.189 17.4936 14.5265 17.2482C14.864 17.0027 15.0344 16.5903 14.9662 16.1812L14.1243 11.2147L17.6762 7.70031C17.9693 7.41057 18.075 6.97766 17.9455 6.58566C17.8159 6.19366 17.4785 5.90732 17.0694 5.84597L12.1711 5.12332L9.97926 0.613571Z" fill="black"/>
</svg>
