<svg width="18" height="18" viewBox="0 0 18 18" fill="none" xmlns="http://www.w3.org/2000/svg">
<path fill-rule="evenodd" clip-rule="evenodd" d="M4.96348 0.291288C5.48444 0.0863663 6.04111 -0.012305 6.60076 0.00107794C7.1604 -0.012305 7.71708 0.0863663 8.23803 0.291288C8.75898 0.496209 9.2337 0.803242 9.63425 1.19433C10.0348 1.58541 10.3531 2.05265 10.5704 2.56855C10.7877 3.08446 10.8997 3.63861 10.8997 4.19842C10.8997 4.75823 10.7877 5.31239 10.5704 5.82829C10.3531 6.3442 10.0348 6.81143 9.63425 7.20252C9.2337 7.5936 8.75898 7.90063 8.23803 8.10556C7.71708 8.31048 7.1604 8.40915 6.60076 8.39577C6.04111 8.40915 5.48444 8.31048 4.96348 8.10556C4.44253 7.90063 3.96782 7.5936 3.56727 7.20252C3.16672 6.81143 2.84843 6.3442 2.63111 5.82829C2.41379 5.31239 2.30184 4.75823 2.30184 4.19842C2.30184 3.63861 2.41379 3.08446 2.63111 2.56855C2.84843 2.05265 3.16672 1.58541 3.56727 1.19433C3.96782 0.803242 4.44253 0.496209 4.96348 0.291288ZM1.23124 12.0233C2.01884 11.2357 3.08706 10.7932 4.2009 10.7932H9.00061C10.1145 10.7932 11.1827 11.2357 11.9703 12.0233C12.7579 12.8109 13.2004 13.8791 13.2004 14.993V17.9892H0.00115967V14.993C0.00115967 13.8791 0.443631 12.8109 1.23124 12.0233ZM14.4003 12.0003H15.0002C15.7958 12.0003 16.5589 12.3164 17.1214 12.879C17.684 13.4415 18.0001 14.2046 18.0001 15.0002V18H14.4003V12.0003ZM11.7323 5.7332C12.2011 5.26436 12.837 5.00097 13.5 5.00097C14.1631 5.00097 14.799 5.26436 15.2678 5.7332C15.7366 6.20205 16 6.83793 16 7.50097C16 8.16401 15.7366 8.7999 15.2678 9.26874C14.799 9.73758 14.1631 10.001 13.5 10.001C12.837 10.001 12.2011 9.73758 11.7323 9.26874C11.2634 8.7999 11 8.16401 11 7.50097C11 6.83793 11.2634 6.20205 11.7323 5.7332Z" fill="black"/>
</svg>
