<svg width="18" height="18" viewBox="0 0 18 18" fill="none" xmlns="http://www.w3.org/2000/svg">
<path fill-rule="evenodd" clip-rule="evenodd" d="M9.64747 0.263511C9.47869 0.0947848 9.24981 0 9.01116 0C8.77251 0 8.54363 0.0947848 8.37485 0.263511L2.07478 6.56358L0.274762 8.3636C0.188802 8.44663 0.120238 8.54594 0.073069 8.65574C0.0259004 8.76555 0.00107243 8.88365 3.39814e-05 9.00315C-0.00100446 9.12265 0.0217673 9.24116 0.0670207 9.35177C0.112274 9.46238 0.179103 9.56287 0.263607 9.64737C0.348111 9.73188 0.448599 9.7987 0.559207 9.84396C0.669815 9.88921 0.788328 9.91198 0.907831 9.91095C1.02733 9.90991 1.14543 9.88508 1.25524 9.83791C1.36504 9.79074 1.46435 9.72218 1.54738 9.63622L1.81108 9.37251V15.3C1.81108 16.0161 2.09555 16.7028 2.6019 17.2092C3.10825 17.7155 3.79502 18 4.51111 18H13.5112C14.2273 18 14.9141 17.7155 15.4204 17.2092C15.9268 16.7028 16.2112 16.0161 16.2112 15.3V9.37251L16.4749 9.63622C16.6447 9.80016 16.872 9.89088 17.108 9.88883C17.344 9.88678 17.5697 9.79212 17.7366 9.62525C17.9035 9.45838 17.9981 9.23265 18.0002 8.99667C18.0022 8.76069 17.9115 8.53335 17.7476 8.3636L9.64747 0.263511Z" fill="black"/>
</svg>
