<svg width="18" height="18" viewBox="0 0 18 18" fill="none" xmlns="http://www.w3.org/2000/svg">
<path d="M6.47368 9C6.92036 9 7.34875 8.8276 7.6646 8.52072C7.98045 8.21384 8.15789 7.79763 8.15789 7.36364C8.15789 6.92965 7.98045 6.51343 7.6646 6.20655C7.34875 5.89968 6.92036 5.72727 6.47368 5.72727C6.027 5.72727 5.59862 5.89968 5.28277 6.20655C4.96692 6.51343 4.78947 6.92965 4.78947 7.36364C4.78947 7.79763 4.96692 8.21384 5.28277 8.52072C5.59862 8.8276 6.027 9 6.47368 9ZM9 0L17 4.5V13.5L9 18L1 13.5V4.5L9 0ZM2.68421 5.44336V12.5566L4.68168 13.68L11.48 8.83636L15.3158 11.0733V5.44418L9 1.89L2.68421 5.44336Z" fill="black"/>
</svg>
