<svg width="18" height="18" viewBox="0 0 18 18" fill="none" xmlns="http://www.w3.org/2000/svg">
<path fill-rule="evenodd" clip-rule="evenodd" d="M5.77056 1.21207C4.96544 1.6106 4.5155 2.37068 4.5155 3.33213C4.5155 4.22757 4.81515 4.65836 6.8562 6.69709C8.54175 8.38072 8.68457 8.49895 9.0319 8.49895C9.38105 8.49895 9.5152 8.38536 11.2345 6.63449C13.249 4.58307 13.5076 4.20439 13.504 3.31157C13.4986 2.00087 12.5177 1 11.2383 1C10.5765 1 10.1367 1.19856 9.44243 1.81067L8.95671 2.23874L8.4849 1.77519C8.22536 1.52029 7.84437 1.2415 7.63825 1.15583C7.10082 0.932368 6.28622 0.956861 5.77056 1.21207ZM5.2412 10.9147C4.4907 11.0847 4.0197 11.3456 3.04917 12.1292C2.22832 12.792 2.2266 12.7927 1.58234 12.7927C0.188885 12.7927 0 13.0334 0 14.8086C0 16.2004 0.108554 16.5355 0.616749 16.7127C1.02163 16.8538 10.7718 16.8666 11.6235 16.7271C11.9461 16.6743 12.4542 16.5193 12.7525 16.3828C13.3266 16.12 17.4675 13.1211 17.7608 12.7557C18.0435 12.4036 18.074 12.0378 17.8608 11.5557C17.614 10.9977 17.0751 10.6995 16.5855 10.8497C16.4114 10.9032 15.403 11.5889 14.3445 12.3737L12.4198 13.8006H10.3122C8.80724 13.8006 8.16993 13.7661 8.08355 13.6797C7.9246 13.5207 7.92853 13.0472 8.0899 12.9133C8.16277 12.8528 8.89523 12.7936 9.80145 12.775C11.3625 12.7428 11.3894 12.7384 11.6532 12.4743C12.0287 12.0984 12.0286 11.4709 11.6531 11.0953L11.3853 10.8273L8.59043 10.8083C6.66056 10.7952 5.62401 10.8282 5.2412 10.9147Z" fill="black"/>
</svg>
