<svg width="18" height="18" viewBox="0 0 18 18" fill="none" xmlns="http://www.w3.org/2000/svg">
<path d="M11.4545 1.00309C12.029 1.00311 12.5934 1.15759 13.0909 1.451C13.5884 1.74442 14.0015 2.16643 14.2887 2.67463C14.576 3.18283 14.7272 3.7593 14.7272 4.34612C14.7272 4.93293 14.576 5.5094 14.2887 6.0176H18V7.6891H16.3636V16.0466C16.3636 16.2683 16.2774 16.4808 16.124 16.6376C15.9706 16.7943 15.7624 16.8824 15.5455 16.8824H2.45455C2.23755 16.8824 2.02944 16.7943 1.876 16.6376C1.72256 16.4808 1.63636 16.2683 1.63636 16.0466V7.6891H0V6.0176H3.71045C3.30356 5.29947 3.17265 4.45245 3.34317 3.64122C3.5137 2.82998 3.97347 2.11251 4.63309 1.6283C5.29271 1.14409 6.10504 0.927751 6.91214 1.02134C7.71924 1.11494 8.46342 1.51178 9 2.1347C9.30647 1.77841 9.68394 1.49313 10.1071 1.29797C10.5303 1.10281 10.9894 1.00227 11.4537 1.00309M9.81736 7.6891H8.181V16.0466H9.81736V7.6891ZM6.54464 2.67459C6.12195 2.67561 5.71605 2.84367 5.41195 3.14356C5.10785 3.44345 4.92916 3.8519 4.9133 4.28336C4.89743 4.71482 5.04563 5.13581 5.32685 5.45815C5.60807 5.7805 6.00049 5.97918 6.42191 6.01258L6.54464 6.0176H8.181V4.34609C8.18102 3.94666 8.041 3.56042 7.7863 3.25733C7.53161 2.95423 7.17907 2.75433 6.79255 2.69382L6.66655 2.67877L6.54464 2.67459ZM11.4537 2.67459C11.0409 2.67446 10.6433 2.83373 10.3406 3.12046C10.0378 3.4072 9.85242 3.80022 9.82145 4.22073L9.81736 4.34609V6.0176H11.4537C11.8664 6.01752 12.2638 5.85816 12.5664 5.57144C12.8689 5.28472 13.0542 4.89183 13.0852 4.47146L13.0901 4.34609C13.0901 3.90278 12.9177 3.47763 12.6108 3.16416C12.3039 2.8507 11.8877 2.67459 11.4537 2.67459Z" fill="black"/>
</svg>
