<svg width="18" height="18" viewBox="0 0 18 18" fill="none" xmlns="http://www.w3.org/2000/svg">
<path d="M1.66672 7.66589C1.4899 7.66589 1.32031 7.59564 1.19528 7.47061C1.07024 7.34558 1 7.17599 1 6.99917V1.66672C1 1.4899 1.07024 1.32031 1.19528 1.19528C1.32031 1.07024 1.4899 1 1.66672 1H7.0005C7.17733 1 7.34691 1.07024 7.47194 1.19528C7.59698 1.32031 7.66722 1.4899 7.66722 1.66672V6.99917C7.66722 7.17599 7.59698 7.34558 7.47194 7.47061C7.34691 7.59564 7.17733 7.66589 7.0005 7.66589H1.66672ZM11.0008 7.66589C10.824 7.66589 10.6544 7.59564 10.5294 7.47061C10.4044 7.34558 10.3341 7.17599 10.3341 6.99917V1.66672C10.3341 1.4899 10.4044 1.32031 10.5294 1.19528C10.6544 1.07024 10.824 1 11.0008 1H16.3333C16.5101 1 16.6797 1.07024 16.8047 1.19528C16.9298 1.32031 17 1.4899 17 1.66672V6.99917C17 7.17599 16.9298 7.34558 16.8047 7.47061C16.6797 7.59564 16.5101 7.66589 16.3333 7.66589H11.0008ZM1.66672 17C1.4899 17 1.32031 16.9298 1.19528 16.8047C1.07024 16.6797 1 16.5101 1 16.3333V10.9995C1 10.8227 1.07024 10.6531 1.19528 10.5281C1.32031 10.403 1.4899 10.3328 1.66672 10.3328H7.0005C7.17733 10.3328 7.34691 10.403 7.47194 10.5281C7.59698 10.6531 7.66722 10.8227 7.66722 10.9995V16.3333C7.66722 16.5101 7.59698 16.6797 7.47194 16.8047C7.34691 16.9298 7.17733 17 7.0005 17H1.66672ZM11.0008 17C10.824 17 10.6544 16.9298 10.5294 16.8047C10.4044 16.6797 10.3341 16.5101 10.3341 16.3333V10.9995C10.3341 10.8227 10.4044 10.6531 10.5294 10.5281C10.6544 10.403 10.824 10.3328 11.0008 10.3328H16.3333C16.5101 10.3328 16.6797 10.403 16.8047 10.5281C16.9298 10.6531 17 10.8227 17 10.9995V16.3333C17 16.5101 16.9298 16.6797 16.8047 16.8047C16.6797 16.9298 16.5101 17 16.3333 17H11.0008Z" fill="black"/>
</svg>
